<svg xmlns="http://www.w3.org/2000/svg" width="1200" height="320" viewBox="0 0 1200 320" role="img" aria-label="The Broker - Threat Hunt Report banner">
  <defs>
    <!-- Background gradient -->
    <linearGradient id="bg" x1="0" y1="0" x2="1" y2="1">
      <stop offset="0%" stop-color="#070A12"/>
      <stop offset="55%" stop-color="#0B1220"/>
      <stop offset="100%" stop-color="#0A1A2A"/>
    </linearGradient>

    <!-- Accent gradient -->
    <linearGradient id="accent" x1="0" y1="0" x2="1" y2="0">
      <stop offset="0%" stop-color="#4F46E5"/>
      <stop offset="45%" stop-color="#06B6D4"/>
      <stop offset="100%" stop-color="#22C55E"/>
    </linearGradient>

    <!-- Soft glow -->
    <filter id="softGlow" x="-30%" y="-30%" width="160%" height="160%">
      <feGaussianBlur stdDeviation="10" result="blur"/>
      <feColorMatrix in="blur" type="matrix"
        values="1 0 0 0 0
                0 1 0 0 0
                0 0 1 0 0
                0 0 0 0.25 0" result="glow"/>
      <feMerge>
        <feMergeNode in="glow"/>
        <feMergeNode in="SourceGraphic"/>
      </feMerge>
    </filter>

    <!-- Subtle noise (lightweight) -->
    <filter id="noise" x="0" y="0" width="100%" height="100%">
      <feTurbulence type="fractalNoise" baseFrequency="0.9" numOctaves="2" stitchTiles="stitch" result="n"/>
      <feColorMatrix type="matrix" values="
        0 0 0 0 0
        0 0 0 0 0
        0 0 0 0 0
        0 0 0 0.06 0" />
    </filter>

    <!-- Typography -->
    <style>
      .title { font-family: ui-sans-serif, system-ui, -apple-system, Segoe UI, Roboto, Arial, "Noto Sans", "Liberation Sans", sans-serif; font-weight: 800; letter-spacing: -0.5px; }
      .subtitle { font-family: ui-sans-serif, system-ui, -apple-system, Segoe UI, Roboto, Arial, "Noto Sans", "Liberation Sans", sans-serif; font-weight: 600; letter-spacing: 0.2px; }
      .meta { font-family: ui-monospace, SFMono-Regular, Menlo, Consolas, "Liberation Mono", monospace; font-weight: 600; letter-spacing: 0.6px; }
      .label { font-family: ui-sans-serif, system-ui, -apple-system, Segoe UI, Roboto, Arial, "Noto Sans", "Liberation Sans", sans-serif; font-weight: 700; letter-spacing: 0.3px; }
    </style>
  </defs>

  <!-- Background -->
  <rect x="0" y="0" width="1200" height="320" fill="url(#bg)"/>
  <rect x="0" y="0" width="1200" height="320" filter="url(#noise)"/>

  <!-- Decorative grid -->
  <g opacity="0.18">
    <path d="M0 250H1200" stroke="#7DD3FC" stroke-opacity="0.25"/>
    <path d="M0 210H1200" stroke="#7DD3FC" stroke-opacity="0.18"/>
    <path d="M0 170H1200" stroke="#7DD3FC" stroke-opacity="0.14"/>
    <path d="M0 130H1200" stroke="#7DD3FC" stroke-opacity="0.10"/>
    <path d="M120 0V320" stroke="#7DD3FC" stroke-opacity="0.10"/>
    <path d="M260 0V320" stroke="#7DD3FC" stroke-opacity="0.08"/>
    <path d="M400 0V320" stroke="#7DD3FC" stroke-opacity="0.06"/>
    <path d="M540 0V320" stroke="#7DD3FC" stroke-opacity="0.05"/>
    <path d="M680 0V320" stroke="#7DD3FC" stroke-opacity="0.05"/>
    <path d="M820 0V320" stroke="#7DD3FC" stroke-opacity="0.06"/>
    <path d="M960 0V320" stroke="#7DD3FC" stroke-opacity="0.08"/>
    <path d="M1100 0V320" stroke="#7DD3FC" stroke-opacity="0.10"/>
  </g>

  <!-- Accent bar -->
  <g filter="url(#softGlow)">
    <rect x="70" y="64" width="7" height="192" rx="3.5" fill="url(#accent)"/>
  </g>

  <!-- Left icon: shield + magnifier -->
  <g transform="translate(108,84)" filter="url(#softGlow)">
    <!-- Shield -->
    <path d="M70 0C54 10 39 14 24 16v44c0 34 21 62 46 74c25-12 46-40 46-74V16C101 14 86 10 70 0Z"
          fill="#0B1A2B" stroke="url(#accent)" stroke-width="2.2"/>
    <!-- Magnifier -->
    <circle cx="67" cy="61" r="18" fill="none" stroke="#E2E8F0" stroke-width="3"/>
    <path d="M79 73l16 16" stroke="#E2E8F0" stroke-width="3.5" stroke-linecap="round"/>
    <!-- Small "node" dots -->
    <circle cx="44" cy="44" r="3" fill="#7DD3FC" opacity="0.9"/>
    <circle cx="55" cy="34" r="2.6" fill="#A7F3D0" opacity="0.9"/>
    <circle cx="87" cy="49" r="2.6" fill="#C4B5FD" opacity="0.9"/>
  </g>

  <!-- Title block -->
  <g transform="translate(240,92)">
    <text x="0" y="0" class="meta" font-size="14" fill="#93C5FD" opacity="0.95">
      THREAT HUNT • SOC INVESTIGATION • MICROSOFT SENTINEL + MDE
    </text>

    <text x="0" y="62" class="title" font-size="56" fill="#F8FAFC">
      The Broker
    </text>

    <text x="2" y="98" class="subtitle" font-size="20" fill="#CBD5E1" opacity="0.95">
      Portfolio Report — Lateral Movement • Persistence • Data Access • Anti-Forensics & Memory
    </text>
  </g>

  <!-- Right-side "telemetry card" -->
  <g transform="translate(790,78)" filter="url(#softGlow)">
    <rect x="0" y="0" width="360" height="164" rx="18" fill="#071423" stroke="#1F3B5A" stroke-width="1.2" opacity="0.95"/>
    <!-- Accent header line -->
    <rect x="18" y="20" width="110" height="6" rx="3" fill="url(#accent)"/>
    <text x="18" y="54" class="label" font-size="14" fill="#E2E8F0" opacity="0.95">Key Telemetry</text>

    <!-- Rows -->
    <g transform="translate(18,72)" font-size="13" class="subtitle" fill="#CFE5FF" opacity="0.95">
      <text x="0" y="0">• Remote execution attempts (WMIC / PsExec)</text>
      <text x="0" y="26">• RDP pivot (mstsc.exe)</text>
      <text x="0" y="52">• Scheduled task persistence</text>
      <text x="0" y="78">• Data staging + archive creation</text>
    </g>

    <!-- Tiny chart bars -->
    <g transform="translate(250,22)" opacity="0.9">
      <rect x="0"  y="46" width="10" height="22" rx="3" fill="#60A5FA"/>
      <rect x="16" y="34" width="10" height="34" rx="3" fill="#22C55E"/>
      <rect x="32" y="28" width="10" height="40" rx="3" fill="#06B6D4"/>
      <rect x="48" y="40" width="10" height="28" rx="3" fill="#A78BFA"/>
      <rect x="64" y="22" width="10" height="46" rx="3" fill="#F59E0B" opacity="0.85"/>
    </g>
  </g>

  <!-- Footer chips -->
  <g transform="translate(240,248)">
    <g>
      <rect x="0" y="0" width="168" height="34" rx="10" fill="#0B1A2B" stroke="#1E3A5F" stroke-width="1"/>
      <text x="14" y="22" class="meta" font-size="12" fill="#A7F3D0">INCIDENT REPORT</text>
    </g>
    <g transform="translate(182,0)">
      <rect x="0" y="0" width="158" height="34" rx="10" fill="#0B1A2B" stroke="#1E3A5F" stroke-width="1"/>
      <text x="14" y="22" class="meta" font-size="12" fill="#C4B5FD">KQL QUERIES</text>
    </g>
    <g transform="translate(354,0)">
      <rect x="0" y="0" width="206" height="34" rx="10" fill="#0B1A2B" stroke="#1E3A5F" stroke-width="1"/>
      <text x="14" y="22" class="meta" font-size="12" fill="#93C5FD">TIMELINE + EVIDENCE</text>
    </g>
  </g>

  <!-- Optional author area (edit or remove) -->
  <g transform="translate(790,262)" opacity="0.9">
    <text x="0" y="0" class="meta" font-size="12" fill="#94A3B8">Author:</text>
    <text x="62" y="0" class="meta" font-size="12" fill="#E2E8F0">Brian Hannigan</text>
  </g>
</svg>
