<svg xmlns="http://www.w3.org/2000/svg" width="1200" height="320" viewBox="0 0 1200 320" role="img" aria-label="The Broker - Threat Hunt Report banner">
  <defs>
    <linearGradient id="bg" x1="0" y1="0" x2="1" y2="1">
      <stop offset="0%" stop-color="#070A12"/>
      <stop offset="55%" stop-color="#0B1220"/>
      <stop offset="100%" stop-color="#0A1A2A"/>
    </linearGradient>

    <linearGradient id="accent" x1="0" y1="0" x2="1" y2="0">
      <stop offset="0%" stop-color="#4F46E5"/>
      <stop offset="45%" stop-color="#06B6D4"/>
      <stop offset="100%" stop-color="#22C55E"/>
    </linearGradient>

    <filter id="softGlow" x="-30%" y="-30%" width="160%" height="160%">
      <feGaussianBlur stdDeviation="10" result="blur"/>
      <feColorMatrix in="blur" type="matrix"
        values="1 0 0 0 0
                0 1 0 0 0
                0 0 1 0 0
                0 0 0 0.22 0" result="glow"/>
      <feMerge>
        <feMergeNode in="glow"/>
        <feMergeNode in="SourceGraphic"/>
      </feMerge>
    </filter>
  </defs>

  <!-- Background -->
  <rect x="0" y="0" width="1200" height="320" fill="url(#bg)"/>

  <!-- Top Telemetry Bar -->
  <rect x="0" y="0" width="1200" height="64" fill="#06101D" opacity="0.75"/>
  <rect x="0" y="62" width="1200" height="2" fill="url(#accent)"/>

  <!-- Colored bars (LEFT, behind text, semi-transparent) -->
  <g transform="translate(30,14)" opacity="0.35">
    <rect x="0"  y="26" width="8" height="18" rx="3" fill="#60A5FA"/>
    <rect x="14" y="16" width="8" height="28" rx="3" fill="#22C55E"/>
    <rect x="28" y="12" width="8" height="32" rx="3" fill="#06B6D4"/>
    <rect x="42" y="20" width="8" height="24" rx="3" fill="#A78BFA"/>
    <rect x="56" y="8"  width="8" height="36" rx="3" fill="#F59E0B"/>
  </g>

  <!-- Key Telemetry text (drawn AFTER bars so it is on top) -->
  <text x="120" y="40"
        font-size="15"
        fill="#E2E8F0"
        font-family="ui-sans-serif, system-ui, -apple-system, Segoe UI, Roboto, Arial, Noto Sans, Liberation Sans, sans-serif"
        font-weight="700"
        letter-spacing="0.3px">
    Key Telemetry
  </text>

  <!-- Telemetry bullets -->
  <g font-size="13"
     fill="#CFE5FF"
     font-family="ui-sans-serif, system-ui, -apple-system, Segoe UI, Roboto, Arial, Noto Sans, Liberation Sans, sans-serif"
     font-weight="600">
    <text x="260" y="40">• Remote execution attempts (WMIC / PsExec)</text>
    <text x="580" y="40">• RDP pivot (mstsc.exe)</text>
    <text x="760" y="40">• Scheduled task persistence</text>
    <text x="970" y="40">• Data staging +amp; archive creation</text>
  </g>

  <!-- Accent side bar -->
  <g filter="url(#softGlow)">
    <rect x="70" y="88" width="7" height="168" rx="3.5" fill="url(#accent)"/>
  </g>

  <!-- Shield icon -->
  <g transform="translate(108,104)" filter="url(#softGlow)">
    <path d="M70 0C54 10 39 14 24 16v44c0 34 21 62 46 74c25-12 46-40 46-74V16C101 14 86 10 70 0Z"
          fill="#0B1A2B" stroke="url(#accent)" stroke-width="2.2"/>
    <circle cx="67" cy="61" r="18" fill="none" stroke="#E2E8F0" stroke-width="3"/>
    <path d="M79 73l16 16" stroke="#E2E8F0" stroke-width="3.5" stroke-linecap="round"/>
  </g>

  <!-- Title -->
  <g transform="translate(240,118)">
    <text x="0" y="0"
          font-size="14"
          fill="#93C5FD"
          font-family="ui-monospace, SFMono-Regular, Menlo, Consolas, Liberation Mono, monospace"
          font-weight="600">
      THREAT HUNT • SOC INVESTIGATION • MICROSOFT SENTINEL + MDE
    </text>

    <text x="0" y="62"
          font-size="56"
          fill="#F8FAFC"
          font-family="ui-sans-serif, system-ui, -apple-system, Segoe UI, Roboto, Arial, Noto Sans, Liberation Sans, sans-serif"
          font-weight="800">
      The Broker
    </text>

    <text x="2" y="98"
          font-size="20"
          fill="#CBD5E1"
          font-family="ui-sans-serif, system-ui, -apple-system, Segoe UI, Roboto, Arial, Noto Sans, Liberation Sans, sans-serif"
          font-weight="600">
      Portfolio Report — Lateral Movement • Persistence • Data Access • Anti-Forensics &amp; Memory
    </text>
  </g>

  <!-- Footer chips -->
  <g transform="translate(240,252)">
    <g>
      <rect x="0" y="0" width="168" height="34" rx="10" fill="#0B1A2B" stroke="#1E3A5F"/>
      <text x="14" y="22" font-size="12" fill="#A7F3D0"
            font-family="ui-monospace, SFMono-Regular, Menlo, Consolas, Liberation Mono, monospace"
            font-weight="600">
        INCIDENT REPORT
      </text>
    </g>

    <g transform="translate(182,0)">
      <rect x="0" y="0" width="158" height="34" rx="10" fill="#0B1A2B" stroke="#1E3A5F"/>
      <text x="14" y="22" font-size="12" fill="#C4B5FD"
            font-family="ui-monospace, SFMono-Regular, Menlo, Consolas, Liberation Mono, monospace"
            font-weight="600">
        KQL QUERIES
      </text>
    </g>

    <g transform="translate(354,0)">
      <rect x="0" y="0" width="206" height="34" rx="10" fill="#0B1A2B" stroke="#1E3A5F"/>
      <text x="14" y="22" font-size="12" fill="#93C5FD"
            font-family="ui-monospace, SFMono-Regular, Menlo, Consolas, Liberation Mono, monospace"
            font-weight="600">
        TIMELINE + EVIDENCE
      </text>
    </g>
  </g>

  <!-- Author -->
  <g transform="translate(820,274)">
    <text x="0" y="0" font-size="12" fill="#94A3B8"
          font-family="ui-monospace, SFMono-Regular, Menlo, Consolas, Liberation Mono, monospace"
          font-weight="600">
      Author:
    </text>
    <text x="62" y="0" font-size="12" fill="#E2E8F0"
          font-family="ui-monospace, SFMono-Regular, Menlo, Consolas, Liberation Mono, monospace"
          font-weight="600">
      Brian Hannigan
    </text>
  </g>

</svg>
